<?xml version="1.0" standalone="no"?>
<!DOCTYPE svg PUBLIC "-//W3C//DTD SVG 20010904//EN"
 "http://www.w3.org/TR/2001/REC-SVG-20010904/DTD/svg10.dtd">
<svg version="1.0" xmlns="http://www.w3.org/2000/svg"
 width="1600.000000pt" height="1020.000000pt" viewBox="0 0 1600.000000 1020.000000"
 preserveAspectRatio="xMidYMid meet">

<g transform="translate(0.000000,1020.000000) scale(0.100000,-0.100000)"
fill="#000000" stroke="none">
<path d="M0 5100 l0 -5100 1165 0 1165 0 2 3051 3 3052 1333 -1687 c733 -927
1336 -1687 1340 -1690 4 -2 531 672 1172 1498 640 825 1945 2504 2900 3729
954 1226 1736 2233 1738 2238 2 5 -597 9 -1507 9 l-1512 0 -252 -339 c-139
-186 -767 -1034 -1397 -1884 -630 -850 -1148 -1545 -1152 -1544 -3 1 -645 848
-1425 1882 l-1419 1880 -1077 3 -1077 2 0 -5100z"/>
<path d="M11530 9073 c-481 -620 -876 -1130 -878 -1134 -2 -5 414 -10 925 -12
660 -3 951 -7 1008 -16 379 -57 613 -159 791 -343 195 -201 286 -449 301 -813
20 -518 -144 -906 -470 -1109 -142 -89 -334 -154 -557 -191 -178 -29 -517 -36
-1615 -33 l-1080 3 -5 803 -5 803 -1157 -1487 -1158 -1487 0 -2029 0 -2028
1160 0 1160 0 2 1582 3 1583 1380 6 c1436 6 1433 6 1710 49 949 146 1695 556
2236 1230 495 616 742 1423 715 2345 -17 609 -125 1081 -356 1550 -496 1012
-1459 1659 -2700 1814 -155 20 -421 41 -500 40 -35 0 -46 -14 -910 -1126z"/>
</g>
</svg>
